<?xml version="1.0" encoding="UTF-8" standalone="no"?>
<!DOCTYPE svg PUBLIC "-//W3C//DTD SVG 1.1//EN"
 "http://www.w3.org/Graphics/SVG/1.1/DTD/svg11.dtd">
<!-- Generated by graphviz version 2.42.4 (0)
 -->
<!-- Title: DFA Pages: 1 -->
<svg width="8850pt" height="1953pt"
 viewBox="0.00 0.00 8850.00 1953.00" xmlns="http://www.w3.org/2000/svg" xmlns:xlink="http://www.w3.org/1999/xlink">
<g id="graph0" class="graph" transform="scale(1 1) rotate(0) translate(4 1949)">
<title>DFA</title>
<polygon fill="#282832" stroke="transparent" points="-4,4 -4,-1949 8846,-1949 8846,4 -4,4"/>
<!-- __start -->
<g id="node1" class="node">
<title>__start</title>
<ellipse fill="#141414" stroke="lightgray" cx="36" cy="-119" rx="36" ry="36"/>
</g>
<!-- Q0 -->
<g id="node2" class="node">
<title>Q0</title>
<ellipse fill="#141414" stroke="lightgray" cx="217" cy="-119" rx="36" ry="36"/>
<text text-anchor="middle" x="217" y="-115.3" font-family="Times,serif" font-size="14.00" fill="white">Q0</text>
</g>
<!-- __start&#45;&gt;Q0 -->
<g id="edge1" class="edge">
<title>__start&#45;&gt;Q0</title>
<path fill="none" stroke="lightgray" d="M72.36,-119C101.05,-119 141.62,-119 172.33,-119"/>
<polygon fill="lightgray" stroke="lightgray" points="172.71,-121.8 180.71,-119 172.71,-116.2 172.71,-121.8"/>
</g>
<!-- Q4 -->
<g id="node6" class="node">
<title>Q4</title>
<ellipse fill="#141414" stroke="lightgray" cx="4359" cy="-652" rx="36" ry="36"/>
<text text-anchor="middle" x="4359" y="-648.3" font-family="Times,serif" font-size="14.00" fill="white">Q4</text>
</g>
<!-- Q0&#45;&gt;Q4 -->
<g id="edge2" class="edge">
<title>Q0&#45;&gt;Q4</title>
<path fill="none" stroke="lightgray" d="M241.15,-92.29C274.29,-57.21 338.91,0 408,0 408,0 408,0 955.5,0 1661.43,0 1827.61,-173.23 2533.5,-181"/>
<path fill="none" stroke="lightgray" d="M2535.5,-181C3190.66,-171.94 3419.91,-14.11 4004,-311"/>
<path fill="none" stroke="lightgray" d="M4006,-311C4132.03,-373.54 4169.75,-389.46 4265,-493 4297.71,-528.55 4324.2,-577.52 4340.42,-611.68"/>
<polygon fill="lightgray" stroke="lightgray" points="4338,-613.11 4343.92,-619.17 4343.07,-610.74 4338,-613.11"/>
<text text-anchor="middle" x="954.5" y="-3.8" font-family="Times,serif" font-size="14.00" fill="white">[a–z], [A–Z], [0–9], [space], !, #, $, %, &#39;, (, ), *, +, ,, &#45;, ., /, :, ;, &lt;, =, &gt;, @, [, ], ^, _, `, {, |, }, ~</text>
</g>
<!-- Q7 -->
<g id="node9" class="node">
<title>Q7</title>
<ellipse fill="#141414" stroke="lightgray" cx="409" cy="-788" rx="36" ry="36"/>
<text text-anchor="middle" x="409" y="-784.3" font-family="Times,serif" font-size="14.00" fill="white">Q7</text>
</g>
<!-- Q0&#45;&gt;Q7 -->
<g id="edge3" class="edge">
<title>Q0&#45;&gt;Q7</title>
<path fill="none" stroke="lightgray" d="M227.82,-153.56C259.79,-266.14 360.9,-622.16 395.92,-745.47"/>
<polygon fill="lightgray" stroke="lightgray" points="393.25,-746.31 398.13,-753.25 398.64,-744.78 393.25,-746.31"/>
<text text-anchor="middle" x="313" y="-477.8" font-family="Times,serif" font-size="14.00" fill="white">&amp;</text>
</g>
<!-- Q1 -->
<g id="node3" class="node">
<title>Q1</title>
<ellipse fill="#141414" stroke="lightgray" cx="4359" cy="-1284" rx="36" ry="36"/>
<ellipse fill="none" stroke="lightgray" cx="4359" cy="-1284" rx="40" ry="40"/>
<text text-anchor="middle" x="4359" y="-1280.3" font-family="Times,serif" font-size="14.00" fill="white">Q1</text>
</g>
<!-- Q1&#45;&gt;Q1 -->
<g id="edge4" class="edge">
<title>Q1&#45;&gt;Q1</title>
<path fill="none" stroke="lightgray" d="M4324,-1303.81C4272.66,-1342.84 4284.33,-1396 4359,-1396 4430.46,-1396 4444.22,-1347.31 4400.27,-1308.91"/>
<polygon fill="lightgray" stroke="lightgray" points="4401.97,-1306.69 4394,-1303.81 4398.44,-1311.03 4401.97,-1306.69"/>
<text text-anchor="middle" x="4359" y="-1399.8" font-family="Times,serif" font-size="14.00" fill="white">[a–z], [A–Z], [0–9], [space], !, #, $, %, &amp;, &#39;, (, ), *, +, ,, &#45;, ., /, :, ;, &lt;, =, &gt;, @, [, ], ^, _, `, {, |, }, ~</text>
</g>
<!-- Q2 -->
<g id="node4" class="node">
<title>Q2</title>
<ellipse fill="#141414" stroke="lightgray" cx="8802" cy="-1021" rx="36" ry="36"/>
<ellipse fill="none" stroke="lightgray" cx="8802" cy="-1021" rx="40" ry="40"/>
<text text-anchor="middle" x="8802" y="-1017.3" font-family="Times,serif" font-size="14.00" fill="white">Q2</text>
</g>
<!-- Q2&#45;&gt;Q4 -->
<g id="edge21" class="edge">
<title>Q2&#45;&gt;Q4</title>
<path fill="none" stroke="lightgray" d="M8794.4,-981.56C8774.17,-867.28 8708.66,-544 8615,-544 8067.5,-544 8067.5,-544 8067.5,-544 7470.64,-544 7327.57,-655.71 6738.76,-724.05"/>
<polygon fill="lightgray" stroke="lightgray" points="6738.13,-721.3 6730.5,-725 6738.77,-726.87 6738.13,-721.3"/>
<path fill="none" stroke="lightgray" d="M6728.5,-725C6321.79,-771.59 6223.73,-828.16 5814.5,-839"/>
<path fill="none" stroke="lightgray" d="M5812.5,-839C5406.54,-849.75 5296.83,-940.54 4899,-859"/>
<path fill="none" stroke="lightgray" d="M4897,-859C4696.1,-817.82 4472.15,-709.61 4391.26,-668.32"/>
<text text-anchor="middle" x="8068.5" y="-556.8" font-family="Times,serif" font-size="14.00" fill="white">[a–z], [A–Z], [0–9], [space], !, #, $, %, &#39;, (, ), *, +, ,, &#45;, ., /, :, ;, &lt;, =, &gt;, @, [, ], ^, _, `, {, |, }, ~</text>
</g>
<!-- Q5 -->
<g id="node7" class="node">
<title>Q5</title>
<ellipse fill="#141414" stroke="lightgray" cx="5813.5" cy="-1143" rx="36" ry="36"/>
<text text-anchor="middle" x="5813.5" y="-1139.3" font-family="Times,serif" font-size="14.00" fill="white">Q5</text>
</g>
<!-- Q2&#45;&gt;Q5 -->
<g id="edge22" class="edge">
<title>Q2&#45;&gt;Q5</title>
<path fill="none" stroke="lightgray" d="M8769.95,-1045.44C8698.19,-1100.26 8513.26,-1232.31 8334,-1284 7975.79,-1387.28 7867.11,-1320.9 7498.21,-1324.9"/>
<polygon fill="lightgray" stroke="lightgray" points="7497.97,-1322.1 7490,-1325 7498.03,-1327.7 7497.97,-1322.1"/>
<text text-anchor="middle" x="8424" y="-1267.8" font-family="Times,serif" font-size="14.00" fill="white">&amp;</text>
</g>
<!-- Q3 -->
<g id="node5" class="node">
<title>Q3</title>
<ellipse fill="#141414" stroke="lightgray" cx="3324.5" cy="-593" rx="36" ry="36"/>
<text text-anchor="middle" x="3324.5" y="-589.3" font-family="Times,serif" font-size="14.00" fill="white">Q3</text>
</g>
<!-- Q3&#45;&gt;Q4 -->
<g id="edge23" class="edge">
<title>Q3&#45;&gt;Q4</title>
<path fill="none" stroke="lightgray" d="M3360.48,-594.87C3484.11,-601.51 3911.96,-624.65 4265,-646 4281.08,-646.97 4298.72,-648.1 4314.27,-649.11"/>
<polygon fill="lightgray" stroke="lightgray" points="4314.51,-651.93 4322.68,-649.65 4314.87,-646.34 4314.51,-651.93"/>
<text text-anchor="middle" x="4005" y="-649.8" font-family="Times,serif" font-size="14.00" fill="white">[space], !, #, $, %, &#39;, (, ), *, +, ,, &#45;, ., ;, &lt;, =, &gt;, @, [, ], ^, _, `, {, |, }, ~</text>
</g>
<!-- Q3&#45;&gt;Q5 -->
<g id="edge24" class="edge">
<title>Q3&#45;&gt;Q5</title>
<path fill="none" stroke="lightgray" d="M3355.24,-612.23C3450.12,-673.56 3739.7,-860.67 3745,-863 3963.72,-959.06 4041.15,-915.58 4265,-999 4327.21,-1022.18 4339.97,-1034.62 4399,-1065 4423.22,-1077.46 4426.91,-1086.15 4453,-1094 4642.76,-1151.13 4698.93,-1128.49 4897,-1135"/>
<text text-anchor="middle" x="4359" y="-1068.8" font-family="Times,serif" font-size="14.00" fill="white">&amp;</text>
</g>
<!-- Q6 -->
<g id="node8" class="node">
<title>Q6</title>
<ellipse fill="#141414" stroke="lightgray" cx="8614" cy="-1021" rx="36" ry="36"/>
<text text-anchor="middle" x="8614" y="-1017.3" font-family="Times,serif" font-size="14.00" fill="white">Q6</text>
</g>
<!-- Q3&#45;&gt;Q6 -->
<g id="edge25" class="edge">
<title>Q3&#45;&gt;Q6</title>
<path fill="none" stroke="lightgray" d="M3360.41,-588.69C3425.61,-580.45 3570.21,-561.3 3691,-539 3989.61,-483.89 4054.35,-391 4358,-391 4358,-391 4358,-391 8425,-391 8547.4,-391 8596.67,-833.21 8609.43,-976.65"/>
<polygon fill="lightgray" stroke="lightgray" points="8606.66,-977.14 8610.15,-984.87 8612.24,-976.65 8606.66,-977.14"/>
<text text-anchor="middle" x="6729.5" y="-394.8" font-family="Times,serif" font-size="14.00" fill="white">[a–z], [A–Z], [0–9], /, :</text>
</g>
<!-- Q4&#45;&gt;Q4 -->
<g id="edge26" class="edge">
<title>Q4&#45;&gt;Q4</title>
<path fill="none" stroke="lightgray" d="M4326.91,-669.02C4272.25,-706.83 4282.95,-760 4359,-760 4431.79,-760 4444.71,-711.3 4397.77,-673.98"/>
<polygon fill="lightgray" stroke="lightgray" points="4399.18,-671.54 4391.09,-669.02 4395.85,-676.04 4399.18,-671.54"/>
<text text-anchor="middle" x="4359" y="-763.8" font-family="Times,serif" font-size="14.00" fill="white">[a–z], [A–Z], [0–9], [space], !, #, $, %, &#39;, (, ), *, +, ,, &#45;, ., /, :, ;, &lt;, =, &gt;, @, [, ], ^, _, `, {, |, }, ~</text>
</g>
<!-- Q4&#45;&gt;Q5 -->
<g id="edge27" class="edge">
<title>Q4&#45;&gt;Q5</title>
<path fill="none" stroke="lightgray" d="M4371.49,-686C4379.63,-710.59 4390.55,-744.68 4399,-775 4426.49,-873.65 4375.13,-932.49 4453,-999 4528.43,-1063.43 5244.47,-1058.43 5343,-1070 5501.02,-1088.56 5687.44,-1120.59 5769.76,-1135.26"/>
<polygon fill="lightgray" stroke="lightgray" points="5769.5,-1138.06 5777.87,-1136.71 5770.49,-1132.54 5769.5,-1138.06"/>
<text text-anchor="middle" x="4898" y="-1073.8" font-family="Times,serif" font-size="14.00" fill="white">&amp;</text>
</g>
<!-- Q5&#45;&gt;Q4 -->
<g id="edge29" class="edge">
<title>Q5&#45;&gt;Q4</title>
<path fill="none" stroke="lightgray" d="M5777.36,-1143.9C5701.2,-1144.17 5518.08,-1135.49 5397,-1053 5361.24,-1028.64 5380.3,-993.92 5343,-972 5171.93,-871.49 4611.37,-1020.52 4453,-901 4435.83,-888.04 4394.35,-761.92 4373.07,-694.31"/>
<polygon fill="lightgray" stroke="lightgray" points="4375.65,-693.16 4370.58,-686.37 4370.3,-694.84 4375.65,-693.16"/>
<text text-anchor="middle" x="4898" y="-975.8" font-family="Times,serif" font-size="14.00" fill="white">[a–z], [0–9], [space], !, #, $, %, &#39;, (, ), *, +, ,, &#45;, ., /, :, ;, &lt;, =, &gt;, @, A, B, C, D, E, F, G, H, I, J, L, M, N, O, P, Q, R, S, T, U, V, W, X, Y, Z, [, ], ^, _, `, {, |, }, ~</text>
</g>
<!-- Q5&#45;&gt;Q5 -->
<g id="edge30" class="edge">
<title>Q5&#45;&gt;Q5</title>
<path fill="none" stroke="lightgray" d="M5777.76,-1149.27C5585.7,-1186.73 5597.61,-1251 5813.5,-1251 6026.34,-1251 6040.93,-1188.53 5857.27,-1150.88"/>
<polygon fill="lightgray" stroke="lightgray" points="5857.63,-1148.09 5849.24,-1149.27 5856.53,-1153.58 5857.63,-1148.09"/>
<text text-anchor="middle" x="5813.5" y="-1254.8" font-family="Times,serif" font-size="14.00" fill="white">&amp;</text>
</g>
<!-- Q14 -->
<g id="node16" class="node">
<title>Q14</title>
<ellipse fill="#141414" stroke="lightgray" cx="7489" cy="-1021" rx="36" ry="36"/>
<text text-anchor="middle" x="7489" y="-1017.3" font-family="Times,serif" font-size="14.00" fill="white">Q14</text>
</g>
<!-- Q5&#45;&gt;Q14 -->
<g id="edge28" class="edge">
<title>Q5&#45;&gt;Q14</title>
<path fill="none" stroke="lightgray" d="M5849.5,-1141.53C6004.98,-1134.83 6648.51,-1105.53 7175,-1058 7271.55,-1049.28 7384.37,-1034.91 7444.7,-1026.89"/>
<polygon fill="lightgray" stroke="lightgray" points="7445.3,-1029.63 7452.86,-1025.8 7444.56,-1024.08 7445.3,-1029.63"/>
<text text-anchor="middle" x="6729.5" y="-1122.8" font-family="Times,serif" font-size="14.00" fill="white">K</text>
</g>
<!-- Q6&#45;&gt;Q2 -->
<g id="edge31" class="edge">
<title>Q6&#45;&gt;Q2</title>
<path fill="none" stroke="lightgray" d="M8650.42,-1021C8679.64,-1021 8721.37,-1021 8753.49,-1021"/>
<polygon fill="lightgray" stroke="lightgray" points="8753.85,-1023.8 8761.85,-1021 8753.85,-1018.2 8753.85,-1023.8"/>
<text text-anchor="middle" x="8706" y="-1024.8" font-family="Times,serif" font-size="14.00" fill="white">;</text>
</g>
<!-- Q6&#45;&gt;Q4 -->
<g id="edge32" class="edge">
<title>Q6&#45;&gt;Q4</title>
<path fill="none" stroke="lightgray" d="M8582.48,-1003.14C8552.37,-986.39 8504.52,-962.01 8460,-949 7718.66,-732.35 7501.44,-631.99 6738.65,-724.01"/>
<polygon fill="lightgray" stroke="lightgray" points="6738.1,-721.26 6730.5,-725 6738.78,-726.82 6738.1,-721.26"/>
<text text-anchor="middle" x="7489" y="-750.8" font-family="Times,serif" font-size="14.00" fill="white">[a–z], [A–Z], [0–9], [space], !, #, $, %, &#39;, (, ), *, +, ,, &#45;, ., /, :, &lt;, =, &gt;, @, [, ], ^, _, `, {, |, }, ~</text>
</g>
<!-- Q6&#45;&gt;Q5 -->
<g id="edge33" class="edge">
<title>Q6&#45;&gt;Q5</title>
<path fill="none" stroke="lightgray" d="M8582.75,-1039.16C8532.72,-1068.42 8428.83,-1125.96 8334,-1158 8106.09,-1235.01 8034,-1195.81 7803,-1263 7778.27,-1270.19 7773.86,-1277.28 7749,-1284 7639.13,-1313.69 7607.99,-1323.22 7498.05,-1324.89"/>
<polygon fill="lightgray" stroke="lightgray" points="7497.96,-1322.09 7490,-1325 7498.04,-1327.69 7497.96,-1322.09"/>
<path fill="none" stroke="lightgray" d="M7488,-1325C7151.24,-1328.84 7066.29,-1330.9 6730.5,-1305"/>
<text text-anchor="middle" x="8068.5" y="-1266.8" font-family="Times,serif" font-size="14.00" fill="white">&amp;</text>
</g>
<!-- Q7&#45;&gt;Q4 -->
<g id="edge37" class="edge">
<title>Q7&#45;&gt;Q4</title>
<path fill="none" stroke="lightgray" d="M414.08,-752.15C424.99,-661.3 457.17,-424.85 503,-362"/>
<path fill="none" stroke="lightgray" d="M505,-362C530.66,-326.81 525.46,-305.09 563,-283 611.65,-254.37 632.76,-271.87 689,-267 1506.6,-196.14 1713.02,-163.52 2533.5,-181"/>
<text text-anchor="middle" x="1692.5" y="-219.8" font-family="Times,serif" font-size="14.00" fill="white">[a–z], [0–9], [space], !, #, $, %, &#39;, (, ), *, +, ,, &#45;, ., /, :, ;, &lt;, =, &gt;, @, A, B, C, D, E, F, G, H, I, J, O, P, Q, R, S, T, U, V, W, X, Y, Z, [, ], ^, _, `, {, |, }, ~</text>
</g>
<!-- Q7&#45;&gt;Q5 -->
<g id="edge38" class="edge">
<title>Q7&#45;&gt;Q5</title>
<path fill="none" stroke="lightgray" d="M412.03,-824.06C423.43,-1018.18 483.09,-1930 598,-1930 598,-1930 598,-1930 2535.5,-1930 3188.17,-1930 3351.47,-1943.56 4004,-1930"/>
<text text-anchor="middle" x="2534.5" y="-1933.8" font-family="Times,serif" font-size="14.00" fill="white">&amp;</text>
</g>
<!-- Q11 -->
<g id="node13" class="node">
<title>Q11</title>
<ellipse fill="#141414" stroke="lightgray" cx="1692.5" cy="-621" rx="36" ry="36"/>
<text text-anchor="middle" x="1692.5" y="-617.3" font-family="Times,serif" font-size="14.00" fill="white">Q11</text>
</g>
<!-- Q7&#45;&gt;Q11 -->
<g id="edge34" class="edge">
<title>Q7&#45;&gt;Q11</title>
<path fill="none" stroke="lightgray" d="M505,-362C527.41,-342.57 535.22,-384.62 563,-395 968.07,-546.3 1494.73,-603.3 1647.94,-617.31"/>
<polygon fill="lightgray" stroke="lightgray" points="1648.01,-620.13 1656.23,-618.06 1648.51,-614.55 1648.01,-620.13"/>
<text text-anchor="middle" x="599" y="-421.8" font-family="Times,serif" font-size="14.00" fill="white">K</text>
</g>
<!-- Q12 -->
<g id="node14" class="node">
<title>Q12</title>
<ellipse fill="#141414" stroke="lightgray" cx="1692.5" cy="-419" rx="36" ry="36"/>
<text text-anchor="middle" x="1692.5" y="-415.3" font-family="Times,serif" font-size="14.00" fill="white">Q12</text>
</g>
<!-- Q7&#45;&gt;Q12 -->
<g id="edge35" class="edge">
<title>Q7&#45;&gt;Q12</title>
<path fill="none" stroke="lightgray" d="M505,-362C652.25,-183.02 1455.61,-362.28 1649.41,-408.67"/>
<polygon fill="lightgray" stroke="lightgray" points="1648.95,-411.44 1657.38,-410.59 1650.26,-406 1648.95,-411.44"/>
<text text-anchor="middle" x="599" y="-323.8" font-family="Times,serif" font-size="14.00" fill="white">L, M</text>
</g>
<!-- Q13 -->
<g id="node15" class="node">
<title>Q13</title>
<ellipse fill="#141414" stroke="lightgray" cx="599" cy="-1215" rx="36" ry="36"/>
<text text-anchor="middle" x="599" y="-1211.3" font-family="Times,serif" font-size="14.00" fill="white">Q13</text>
</g>
<!-- Q7&#45;&gt;Q13 -->
<g id="edge36" class="edge">
<title>Q7&#45;&gt;Q13</title>
<path fill="none" stroke="lightgray" d="M424.44,-820.8C458.42,-897.97 543.33,-1090.84 580.32,-1174.84"/>
<polygon fill="lightgray" stroke="lightgray" points="577.85,-1176.19 583.64,-1182.38 582.98,-1173.93 577.85,-1176.19"/>
<text text-anchor="middle" x="504" y="-1004.8" font-family="Times,serif" font-size="14.00" fill="white">N</text>
</g>
<!-- Q8 -->
<g id="node10" class="node">
<title>Q8</title>
<ellipse fill="#141414" stroke="lightgray" cx="1692.5" cy="-1400" rx="36" ry="36"/>
<text text-anchor="middle" x="1692.5" y="-1396.3" font-family="Times,serif" font-size="14.00" fill="white">Q8</text>
</g>
<!-- Q8&#45;&gt;Q4 -->
<g id="edge39" class="edge">
<title>Q8&#45;&gt;Q4</title>
<path fill="none" stroke="lightgray" d="M1728.71,-1397.29C1844.12,-1388.39 2221.43,-1359.29 2533.5,-1335"/>
<path fill="none" stroke="lightgray" d="M2535.5,-1335C2725.26,-1320.23 2769.78,-1293.33 2958,-1265 2994.23,-1259.55 4238.13,-1112.91 4265,-1088 4322.07,-1035.09 4346.86,-796.27 4354.88,-696.26"/>
<polygon fill="lightgray" stroke="lightgray" points="4357.68,-696.36 4355.51,-688.16 4352.09,-695.92 4357.68,-696.36"/>
<text text-anchor="middle" x="3324.5" y="-1268.8" font-family="Times,serif" font-size="14.00" fill="white">[0–9], [space], !, #, $, %, &#39;, (, ), *, +, ,, &#45;, ., /, :, ;, &lt;, =, &gt;, @, [, ], ^, _, `, k, l, m, n, o, p, q, r, s, t, u, v, w, x, y, z, {, |, }, ~</text>
</g>
<!-- Q8&#45;&gt;Q5 -->
<g id="edge40" class="edge">
<title>Q8&#45;&gt;Q5</title>
<path fill="none" stroke="lightgray" d="M2535.5,-1335C2727.5,-1323.34 4095.65,-1350.22 4265,-1259 4325.65,-1226.33 4289.43,-1141.57 4358,-1135"/>
<text text-anchor="middle" x="4005" y="-1320.8" font-family="Times,serif" font-size="14.00" fill="white">&amp;</text>
</g>
<!-- Q8&#45;&gt;Q6 -->
<g id="edge41" class="edge">
<title>Q8&#45;&gt;Q6</title>
<path fill="none" stroke="lightgray" d="M1727.88,-1408.03C1805.41,-1425.84 1999.96,-1468.8 2165,-1491 2515.33,-1538.13 2604.77,-1538.43 2958,-1552 5087.14,-1633.77 5625.29,-1552.51 7749,-1380 8066.1,-1354.24 8195.71,-1474.11 8460,-1297 8542.49,-1241.72 8584.87,-1126.37 8602.58,-1063.71"/>
<polygon fill="lightgray" stroke="lightgray" points="8605.29,-1064.43 8604.72,-1055.97 8599.89,-1062.94 8605.29,-1064.43"/>
<text text-anchor="middle" x="5813.5" y="-1562.8" font-family="Times,serif" font-size="14.00" fill="white">[A–Z], a, b, c, d, e, f, g, h, i</text>
</g>
<!-- Q9 -->
<g id="node11" class="node">
<title>Q9</title>
<ellipse fill="#141414" stroke="lightgray" cx="3324.5" cy="-1480" rx="36" ry="36"/>
<text text-anchor="middle" x="3324.5" y="-1476.3" font-family="Times,serif" font-size="14.00" fill="white">Q9</text>
</g>
<!-- Q8&#45;&gt;Q9 -->
<g id="edge42" class="edge">
<title>Q8&#45;&gt;Q9</title>
<path fill="none" stroke="lightgray" d="M1728.68,-1401.73C1940.65,-1412.13 3046.46,-1466.4 3280.11,-1477.87"/>
<polygon fill="lightgray" stroke="lightgray" points="3280.24,-1480.68 3288.37,-1478.28 3280.52,-1475.09 3280.24,-1480.68"/>
<text text-anchor="middle" x="2534.5" y="-1461.8" font-family="Times,serif" font-size="14.00" fill="white">j</text>
</g>
<!-- Q9&#45;&gt;Q1 -->
<g id="edge43" class="edge">
<title>Q9&#45;&gt;Q1</title>
<path fill="none" stroke="lightgray" d="M3360.3,-1475.82C3527.79,-1455.67 4243.66,-1369.17 4265,-1360 4287.35,-1350.39 4308.64,-1333.75 4325.2,-1318.49"/>
<polygon fill="lightgray" stroke="lightgray" points="4327.18,-1320.47 4331.08,-1312.95 4323.34,-1316.4 4327.18,-1320.47"/>
<text text-anchor="middle" x="4005" y="-1430.8" font-family="Times,serif" font-size="14.00" fill="white">;</text>
</g>
<!-- Q9&#45;&gt;Q4 -->
<g id="edge44" class="edge">
<title>Q9&#45;&gt;Q4</title>
<path fill="none" stroke="lightgray" d="M3353.61,-1458.5C3418.51,-1410.09 3585.49,-1292.54 3745,-1238 3855.35,-1200.27 4180.78,-1247.68 4265,-1167 4282.16,-1150.57 4333.37,-817.1 4351.53,-695.71"/>
<polygon fill="lightgray" stroke="lightgray" points="4354.32,-696.01 4352.73,-687.68 4348.78,-695.18 4354.32,-696.01"/>
<text text-anchor="middle" x="4005" y="-1241.8" font-family="Times,serif" font-size="14.00" fill="white">[a–z], [A–Z], [0–9], [space], !, #, $, %, &#39;, (, ), *, +, ,, &#45;, ., /, :, &lt;, =, &gt;, @, [, ], ^, _, `, {, |, }, ~</text>
</g>
<!-- Q9&#45;&gt;Q5 -->
<g id="edge45" class="edge">
<title>Q9&#45;&gt;Q5</title>
<path fill="none" stroke="lightgray" d="M3360.34,-1484.67C3485.24,-1500.27 3921.33,-1545 4265,-1460 4571.61,-1384.16 4581.2,-1129.01 4897,-1135"/>
<text text-anchor="middle" x="4359" y="-1444.8" font-family="Times,serif" font-size="14.00" fill="white">&amp;</text>
</g>
<!-- Q10 -->
<g id="node12" class="node">
<title>Q10</title>
<ellipse fill="#141414" stroke="lightgray" cx="8424" cy="-1021" rx="36" ry="36"/>
<text text-anchor="middle" x="8424" y="-1017.3" font-family="Times,serif" font-size="14.00" fill="white">Q10</text>
</g>
<!-- Q10&#45;&gt;Q4 -->
<g id="edge5" class="edge">
<title>Q10&#45;&gt;Q4</title>
<path fill="none" stroke="lightgray" d="M8388.49,-1013.12C8372.06,-1009.6 8352.09,-1005.66 8334,-1003 8075.67,-965.07 8009.38,-968.41 7749,-949 6892.94,-885.17 6676.28,-803.37 5822.67,-838.66"/>
<polygon fill="lightgray" stroke="lightgray" points="5822.38,-835.87 5814.5,-839 5822.61,-841.46 5822.38,-835.87"/>
<text text-anchor="middle" x="6729.5" y="-899.8" font-family="Times,serif" font-size="14.00" fill="white">[a–z], [0–9], [space], !, #, $, %, &#39;, (, ), *, +, ,, &#45;, ., /, :, ;, &lt;, =, &gt;, @, B, C, D, E, F, G, H, I, J, K, L, M, N, O, P, Q, R, S, T, U, V, W, X, Y, Z, [, ], ^, _, `, {, |, }, ~</text>
</g>
<!-- Q10&#45;&gt;Q5 -->
<g id="edge6" class="edge">
<title>Q10&#45;&gt;Q5</title>
<path fill="none" stroke="lightgray" d="M8390.48,-1034.63C8373.82,-1041.21 8353.08,-1048.79 8334,-1054 8207.77,-1088.49 7304.64,-1245.22 7175,-1263 6981.09,-1289.6 6929.97,-1316.14 6738.54,-1305.47"/>
<polygon fill="lightgray" stroke="lightgray" points="6738.65,-1302.67 6730.5,-1305 6738.32,-1308.26 6738.65,-1302.67"/>
<path fill="none" stroke="lightgray" d="M6728.5,-1305C6530.42,-1293.12 6479.5,-1297.01 6284,-1263 6118.02,-1234.13 5924.43,-1177 5847.99,-1153.49"/>
<text text-anchor="middle" x="7489" y="-1256.8" font-family="Times,serif" font-size="14.00" fill="white">&amp;</text>
</g>
<!-- Q10&#45;&gt;Q6 -->
<g id="edge7" class="edge">
<title>Q10&#45;&gt;Q6</title>
<path fill="none" stroke="lightgray" d="M8460.36,-1021C8491.35,-1021 8536.49,-1021 8569.64,-1021"/>
<polygon fill="lightgray" stroke="lightgray" points="8569.8,-1023.8 8577.8,-1021 8569.8,-1018.2 8569.8,-1023.8"/>
<text text-anchor="middle" x="8519" y="-1024.8" font-family="Times,serif" font-size="14.00" fill="white">A</text>
</g>
<!-- Q11&#45;&gt;Q3 -->
<g id="edge8" class="edge">
<title>Q11&#45;&gt;Q3</title>
<path fill="none" stroke="lightgray" d="M1728.68,-620.4C1940.65,-616.75 3046.46,-597.76 3280.11,-593.75"/>
<polygon fill="lightgray" stroke="lightgray" points="3280.42,-596.54 3288.37,-593.6 3280.32,-590.94 3280.42,-596.54"/>
<text text-anchor="middle" x="2534.5" y="-616.8" font-family="Times,serif" font-size="14.00" fill="white">[0–9], /, :, w, x, y, z</text>
</g>
<!-- Q11&#45;&gt;Q4 -->
<g id="edge9" class="edge">
<title>Q11&#45;&gt;Q4</title>
<path fill="none" stroke="lightgray" d="M1726.99,-609.69C1803.48,-584.51 1997.36,-524.49 2165,-504 2197.7,-500 3681.77,-505.25 3691,-506 3948.58,-527.06 4021.3,-512.98 4265,-599 4284.78,-605.98 4305.2,-617.11 4321.84,-627.37"/>
<polygon fill="lightgray" stroke="lightgray" points="4320.47,-629.82 4328.74,-631.7 4323.45,-625.07 4320.47,-629.82"/>
<text text-anchor="middle" x="3324.5" y="-509.8" font-family="Times,serif" font-size="14.00" fill="white">[A–Z], [space], !, #, $, %, &#39;, (, ), *, +, ,, &#45;, ., ;, &lt;, =, &gt;, @, [, ], ^, _, `, a, b, c, d, e, f, g, h, i, j, k, l, m, n, o, p, q, r, s, t, u, v, {, |, }, ~</text>
</g>
<!-- Q11&#45;&gt;Q5 -->
<g id="edge10" class="edge">
<title>Q11&#45;&gt;Q5</title>
<path fill="none" stroke="lightgray" d="M1728.19,-626.99C1803.86,-641.41 1986.94,-683.73 2111,-774 2142.49,-796.91 2131.18,-823.7 2165,-843 2452.7,-1007.2 2575.62,-896.43 2904,-940 3065.59,-961.44 4195.56,-1148.56 4358,-1135"/>
<path fill="none" stroke="lightgray" d="M4360,-1135C4596.86,-1105.68 4658.38,-1130.14 4897,-1135"/>
<text text-anchor="middle" x="4005" y="-1134.8" font-family="Times,serif" font-size="14.00" fill="white">&amp;</text>
</g>
<!-- Q12&#45;&gt;Q3 -->
<g id="edge11" class="edge">
<title>Q12&#45;&gt;Q3</title>
<path fill="none" stroke="lightgray" d="M1728.68,-422.76C1940.65,-445.38 3046.46,-563.43 3280.11,-588.37"/>
<polygon fill="lightgray" stroke="lightgray" points="3280.12,-591.18 3288.37,-589.25 3280.71,-585.62 3280.12,-591.18"/>
<text text-anchor="middle" x="2534.5" y="-550.8" font-family="Times,serif" font-size="14.00" fill="white">[a–z], [A–Z], [0–9], /, :</text>
</g>
<!-- Q12&#45;&gt;Q4 -->
<g id="edge12" class="edge">
<title>Q12&#45;&gt;Q4</title>
<path fill="none" stroke="lightgray" d="M1728.19,-412.94C1983.91,-368.93 3578.57,-105.78 4004,-311"/>
<text text-anchor="middle" x="3324.5" y="-256.8" font-family="Times,serif" font-size="14.00" fill="white">[space], !, #, $, %, &#39;, (, ), *, +, ,, &#45;, ., ;, &lt;, =, &gt;, @, [, ], ^, _, `, {, |, }, ~</text>
</g>
<!-- Q12&#45;&gt;Q5 -->
<g id="edge13" class="edge">
<title>Q12&#45;&gt;Q5</title>
<path fill="none" stroke="lightgray" d="M1728.65,-421.27C1806.04,-427.96 1993.61,-453.61 2111,-549 2149.29,-580.12 2124.58,-617.7 2165,-646 2576.85,-934.38 3982.52,-722.34 4399,-1004 4437.64,-1030.13 4413.51,-1069.17 4453,-1094 4620.77,-1199.47 4698.87,-1130.96 4897,-1135"/>
<path fill="none" stroke="lightgray" d="M4899,-1135C5233.79,-1129.94 5637.65,-1138.67 5768.98,-1141.88"/>
<polygon fill="lightgray" stroke="lightgray" points="5769.16,-1144.69 5777.23,-1142.09 5769.3,-1139.09 5769.16,-1144.69"/>
<text text-anchor="middle" x="4005" y="-941.8" font-family="Times,serif" font-size="14.00" fill="white">&amp;</text>
</g>
<!-- Q13&#45;&gt;Q3 -->
<g id="edge14" class="edge">
<title>Q13&#45;&gt;Q3</title>
<path fill="none" stroke="lightgray" d="M629.11,-1194.98C687.59,-1155.87 824.76,-1069.72 953.5,-1030"/>
<path fill="none" stroke="lightgray" d="M955.5,-1030C1420.79,-886.45 3000.1,-642.3 3280.69,-599.5"/>
<polygon fill="lightgray" stroke="lightgray" points="3281.12,-602.26 3288.61,-598.29 3280.28,-596.73 3281.12,-602.26"/>
<text text-anchor="middle" x="1692.5" y="-951.8" font-family="Times,serif" font-size="14.00" fill="white">[A–Z], a, b, c, d</text>
</g>
<!-- Q13&#45;&gt;Q4 -->
<g id="edge15" class="edge">
<title>Q13&#45;&gt;Q4</title>
<path fill="none" stroke="lightgray" d="M955.5,-1030C1203.36,-962.03 1855.07,-1004.55 2111,-981 2351.72,-958.85 4027.7,-721.08 4265,-675 4281.82,-671.73 4300.17,-667.37 4316.09,-663.32"/>
<polygon fill="lightgray" stroke="lightgray" points="4317.12,-665.95 4324.17,-661.24 4315.73,-660.52 4317.12,-665.95"/>
<text text-anchor="middle" x="2534.5" y="-977.8" font-family="Times,serif" font-size="14.00" fill="white">[0–9], [space], !, #, $, %, &#39;, (, ), *, +, ,, &#45;, ., /, :, ;, &lt;, =, &gt;, @, [, ], ^, _, `, f, g, h, i, j, k, l, m, n, o, p, q, r, s, t, u, v, w, x, y, z, {, |, }, ~</text>
</g>
<!-- Q13&#45;&gt;Q5 -->
<g id="edge16" class="edge">
<title>Q13&#45;&gt;Q5</title>
<path fill="none" stroke="lightgray" d="M613.02,-1248.38C627.03,-1279.77 652.34,-1325.63 689,-1351 1241.68,-1733.44 1502.4,-1567.38 2165,-1680 2838.27,-1794.44 3017.77,-1745.32 3691,-1860 3831.52,-1883.94 3861.6,-1923.53 4004,-1930"/>
<path fill="none" stroke="lightgray" d="M4006,-1930C4783.85,-1949.99 5605.53,-1313.21 5779.13,-1170.93"/>
<polygon fill="lightgray" stroke="lightgray" points="5781.1,-1172.93 5785.5,-1165.69 5777.55,-1168.6 5781.1,-1172.93"/>
<text text-anchor="middle" x="3324.5" y="-1863.8" font-family="Times,serif" font-size="14.00" fill="white">&amp;</text>
</g>
<!-- Q13&#45;&gt;Q8 -->
<g id="edge17" class="edge">
<title>Q13&#45;&gt;Q8</title>
<path fill="none" stroke="lightgray" d="M634.77,-1220.89C796.12,-1248.24 1471.44,-1362.7 1648.73,-1392.75"/>
<polygon fill="lightgray" stroke="lightgray" points="1648.43,-1395.54 1656.79,-1394.12 1649.37,-1390.02 1648.43,-1395.54"/>
<text text-anchor="middle" x="954.5" y="-1321.8" font-family="Times,serif" font-size="14.00" fill="white">e</text>
</g>
<!-- Q14&#45;&gt;Q4 -->
<g id="edge19" class="edge">
<title>Q14&#45;&gt;Q4</title>
<path fill="none" stroke="lightgray" d="M7452.87,-1019.12C7157.85,-1003.31 5099.63,-892.23 4907.14,-860.54"/>
<polygon fill="lightgray" stroke="lightgray" points="4907.38,-857.73 4899,-859 4906.34,-863.24 4907.38,-857.73"/>
<text text-anchor="middle" x="5813.5" y="-951.8" font-family="Times,serif" font-size="14.00" fill="white">[A–Z], [0–9], [space], !, #, $, %, &#39;, (, ), *, +, ,, &#45;, ., /, :, ;, &lt;, =, &gt;, @, [, ], ^, _, `, a, b, c, d, e, f, g, h, i, j, k, l, m, n, o, p, q, r, s, t, u, v, x, y, z, {, |, }, ~</text>
</g>
<!-- Q14&#45;&gt;Q5 -->
<g id="edge20" class="edge">
<title>Q14&#45;&gt;Q5</title>
<path fill="none" stroke="lightgray" d="M7453.59,-1029.51C7402.71,-1042.86 7305.21,-1071.33 7229,-1111 7202.74,-1124.67 7203.17,-1140.89 7175,-1150 6679.13,-1310.34 6027.42,-1189.1 5856.82,-1152.54"/>
<polygon fill="lightgray" stroke="lightgray" points="5857.24,-1149.77 5848.83,-1150.82 5856.06,-1155.24 5857.24,-1149.77"/>
<text text-anchor="middle" x="6729.5" y="-1233.8" font-family="Times,serif" font-size="14.00" fill="white">&amp;</text>
</g>
<!-- Q14&#45;&gt;Q10 -->
<g id="edge18" class="edge">
<title>Q14&#45;&gt;Q10</title>
<path fill="none" stroke="lightgray" d="M7525.15,-1021C7670.06,-1021 8220.92,-1021 8379.84,-1021"/>
<polygon fill="lightgray" stroke="lightgray" points="8379.99,-1023.8 8387.99,-1021 8379.99,-1018.2 8379.99,-1023.8"/>
<text text-anchor="middle" x="8068.5" y="-1024.8" font-family="Times,serif" font-size="14.00" fill="white">w</text>
</g>
</g>
</svg>
